# xmcd CD database file
#
# Track frame offsets:
#	150
#	12241
#	37264
#	39171
#	52216
#	64081
#	89313
#	101035
#	111657
#	127333
#	151787
#	165929
#	198416
#
# Disc length: 2824 seconds
#
# Revision: 0
# Processed by: cddbd v1.5.2PL0 Copyright (c) Steve Scherf et al.
# Submitted via: CDex 1.51
#
DISCID=b30b060d
DTITLE=Boombox Casserole - Assembly of Shapes
DYEAR=2007
DGENRE=Jazz
TTITLE0=Square
TTITLE1=Octogon
TTITLE2=This is...
TTITLE3=Undecagon
TTITLE4=Trapezoid
TTITLE5=Parallelogram
TTITLE6=Trans-Rhombus
TTITLE7=Ellipsoid
TTITLE8=Star
TTITLE9=Hexagon
TTITLE10=Line
TTITLE11=Reuleaux Polygon
TTITLE12=Billie's Stain Resistant Cotton Khakis
EXTD=YEAR: 2007
EXTT0=
EXTT1=
EXTT2=
EXTT3=
EXTT4=
EXTT5=
EXTT6=
EXTT7=
EXTT8=
EXTT9=
EXTT10=
EXTT11=
EXTT12=
PLAYORDER=
